<svg width="21" height="21" viewBox="0 0 21 21" fill="none" xmlns="http://www.w3.org/2000/svg">
<path fill-rule="evenodd" clip-rule="evenodd" d="M10.5018 21C4.71183 21 0 16.2917 0 10.5018C0 4.71183 4.71183 0 10.5018 0C16.2917 0 21.0035 4.71183 21.0035 10.5018C21.0035 16.2917 16.2917 21.0035 10.5018 21.0035V21ZM10.5018 0.88369C5.19963 0.88369 0.88369 5.19963 0.88369 10.5018C0.88369 15.8039 5.19963 20.1198 10.5018 20.1198C15.8039 20.1198 20.1198 15.8039 20.1198 10.5018C20.1198 5.19963 15.8039 0.88369 10.5018 0.88369ZM10.0599 16.9669H6.87157C6.62767 16.9669 6.42973 16.7689 6.42973 16.525C6.42973 16.2811 6.62767 16.0832 6.87157 16.0832H10.0599V10.8299C10.0391 10.8301 10.0182 10.8303 9.9973 10.8305L9.99276 10.8305C9.88849 10.8305 9.78421 10.8314 9.67994 10.8323L9.6796 10.8323C9.57543 10.8332 9.47127 10.834 9.36711 10.834C7.31342 10.834 5.93486 9.45549 5.93486 7.40179C5.93486 5.5107 7.47601 3.96954 9.36711 3.96954H10.0599V2.3683C10.0599 2.1244 10.2579 1.92645 10.5018 1.92645C10.7457 1.92645 10.9436 2.1244 10.9436 2.3683V3.96954H13.4038C13.6477 3.96954 13.8456 4.16749 13.8456 4.41139C13.8456 4.65529 13.6477 4.85323 13.4038 4.85323H10.9436V9.9443C12.2249 9.96184 13.3891 10.1068 14.1815 10.8906C14.7753 11.4809 15.0651 12.3434 15.0651 13.5346C15.0651 15.5247 13.623 16.9669 11.6329 16.9669H10.9436V18.3419C10.9436 18.5858 10.7457 18.7837 10.5018 18.7837C10.2579 18.7837 10.0599 18.5858 10.0599 18.3419V16.9669ZM10.9436 16.0832H11.6329C13.1352 16.0832 14.1815 15.0369 14.1815 13.5346C14.1815 12.5908 13.9764 11.9334 13.5593 11.5198C12.995 10.9609 12.0318 10.8459 10.9436 10.829V16.0832ZM10.0599 9.94603C10.0352 9.94629 10.0105 9.94655 9.98569 9.94682C9.78068 9.95035 9.57213 9.95035 9.36711 9.95035C7.81889 9.95035 6.81855 8.95002 6.81855 7.40179C6.81855 5.99496 7.96028 4.85323 9.36711 4.85323H10.0599V9.94603Z" fill="#4D4C4C"/>
</svg>
